# xmcd
#
# Track frame offsets:
# 150
# 35659
# 89015
# 190531
# 211734
#
# Disc length: 3980 seconds
#
# Revision: 0
# Processed by: cddbd v1.4PL0 Copyright (c) Steve Scherf et al.
# Submitted via: Audion 3.0.2 (http://www.panic.com/audion/)
#
DISCID=3c0f8a05
DTITLE=Jay Allison and Friends - The Life Stories Collection - Disc 1
DYEAR=1900
DGENRE=
TTITLE0=Artists: Beginnings
TTITLE1=Dad's Moving Out
TTITLE2=Concerning Breakfast
TTITLE3=Dad and Sam
TTITLE4=Vietnam Tapes of Michael A. Baronowski
EXTD=
EXTT0=
EXTT1=
EXTT2=
EXTT3=
EXTT4=
PLAYORDER=
